<!-- Generator: Adobe Illustrator 21.0.0, SVG Export Plug-In  -->
<svg version="1.1"
	 xmlns="http://www.w3.org/2000/svg" xmlns:xlink="http://www.w3.org/1999/xlink" xmlns:a="http://ns.adobe.com/AdobeSVGViewerExtensions/3.0/"
	 x="0px" y="0px" width="175.917px" height="175.92px" viewBox="0 0 175.917 175.92"
	 style="overflow:scroll;enable-background:new 0 0 175.917 175.92;" xml:space="preserve">
<style type="text/css">
	.st0{fill:#007BB5;}
	.st1{fill:#FFFFFF;}
</style>
<defs>
</defs>
<g>
	<path class="st0" d="M175.917,139.787c0,19.961-16.172,36.133-36.133,36.133H36.139C16.181,175.92,0,159.748,0,139.787V36.139
		C0,16.185,16.181,0,36.139,0h103.645c19.961,0,36.133,16.185,36.133,36.139V139.787z"/>
	<g>
		<path class="st1" d="M26.361,66.601h26.404v84.941H26.361V66.601z M39.567,24.377c8.436,0,15.296,6.864,15.296,15.318
			c0,8.448-6.859,15.295-15.296,15.295c-8.462,0-15.301-6.847-15.301-15.295C24.267,31.241,31.105,24.377,39.567,24.377"/>
		<path class="st1" d="M69.322,66.601h25.327v11.62h0.362c3.521-6.685,12.135-13.718,24.976-13.718
			c26.735,0,31.672,17.586,31.672,40.451v46.588h-26.391v-41.307c0-9.85-0.17-22.527-13.724-22.527
			c-13.734,0-15.832,10.743-15.832,21.821v42.013H69.322V66.601z"/>
	</g>
</g>
</svg>