<!-- Generator: Adobe Illustrator 21.0.0, SVG Export Plug-In  -->
<svg version="1.1"
	 xmlns="http://www.w3.org/2000/svg" xmlns:xlink="http://www.w3.org/1999/xlink" xmlns:a="http://ns.adobe.com/AdobeSVGViewerExtensions/3.0/"
	 x="0px" y="0px" width="175.925px" height="175.926px" viewBox="0 0 175.925 175.926"
	 style="overflow:scroll;enable-background:new 0 0 175.925 175.926;" xml:space="preserve">
<style type="text/css">
	.st0{fill:#1DA1F2;}
	.st1{fill:#FFFFFF;}
</style>
<defs>
</defs>
<g>
	<path class="st0" d="M175.925,139.793c0,19.947-16.183,36.133-36.143,36.133H36.144C16.183,175.926,0,159.74,0,139.793V36.145
		C0,16.183,16.183,0,36.144,0h103.638c19.961,0,36.143,16.183,36.143,36.145V139.793z"/>
	<path class="st1" d="M67.012,138.939c46.238,0,71.52-38.312,71.52-71.525c0-1.086-0.017-2.171-0.074-3.246
		c4.915-3.545,9.177-7.984,12.536-13.017c-4.501,1.997-9.353,3.347-14.43,3.957c5.19-3.115,9.166-8.039,11.055-13.904
		c-4.852,2.873-10.24,4.976-15.964,6.107c-4.597-4.892-11.11-7.944-18.349-7.944c-13.882,0-25.129,11.259-25.129,25.128
		c0,1.974,0.221,3.885,0.645,5.741c-20.888-1.063-39.424-11.06-51.813-26.267c-2.153,3.71-3.403,8.023-3.403,12.626
		c0,8.72,4.433,16.416,11.19,20.928c-4.122-0.13-8.006-1.26-11.389-3.148C33.4,74.488,33.4,74.589,33.4,74.696
		c0,12.181,8.669,22.342,20.158,24.643c-2.097,0.571-4.325,0.888-6.615,0.888c-1.622,0-3.194-0.168-4.727-0.464
		c3.206,9.999,12.485,17.264,23.478,17.468c-8.601,6.746-19.44,10.761-31.22,10.761c-2.023,0-4.019-0.118-5.993-0.352
		C39.604,134.777,52.813,138.939,67.012,138.939"/>
</g>
</svg>